# File created by Blade
# Date/Time:  Thu Jan 22 19:01:23 2015
#---------------------------------------------------------
:version 1.10
:name HOM
:units
  mass 1.0
  length 1.000000
  angle deg
:documentation
     Acclaim Skeleton File
:root
   axis xyz
   order TX TY TZ RX RY RZ
   position 0.000000 0.000000 0.000000
   orientation 0 0 0
:bonedata
   begin
      id 1
      name RightUpLeg_dum
      direction -1.000000 0.000000 0.000000
      length 4.478084
      axis 0.0 0.0 0.0 xyz
   end
   begin
      id 2
      name LeftUpLeg_dum
      direction 1.000000 0.000000 0.000000
      length 4.478084
      axis 0.0 0.0 0.0 xyz
   end
   begin
      id 3
      name Spine_dum
      direction 0.000000 1.000000 0.000000
      length 6.068208
      axis 0.0 0.0 0.0 xyz
   end
   begin
      id 4
      name RightUpLeg
      direction 0.000000 -1.000000 0.000000
      length 16.405774
      axis 0.0 0.0 0.0 xyz
      dof rx ry rz
   end
   begin
      id 5
      name RightLeg
      direction 0.000000 -1.000000 0.000000
      length 14.644143
      axis 0.0 0.0 0.0 xyz
      dof rx ry rz
   end
   begin
      id 6
      name RightFoot
      direction 0.000000 -0.258819 0.965926
      length 5.806150
      axis 15.0 0.0 0.0 xyz
      dof rx ry rz
   end
   begin
      id 7
      name RightToeBase
      direction 0.000000 0.000000 1.000000
      length 2.952750
      axis 0.0 0.0 0.0 xyz
      dof rx ry rz
   end
   begin
      id 8
      name LeftUpLeg
      direction 0.000000 -1.000000 0.000000
      length 16.405774
      axis 0.0 0.0 0.0 xyz
      dof rx ry rz
   end
   begin
      id 9
      name LeftLeg
      direction 0.000000 -1.000000 0.000000
      length 14.644143
      axis 0.0 0.0 0.0 xyz
      dof rx ry rz
   end
   begin
      id 10
      name LeftFoot
      direction 0.000000 -0.258819 0.965926
      length 5.806150
      axis 15.0 0.0 0.0 xyz
      dof rx ry rz
   end
   begin
      id 11
      name LeftToeBase
      direction 0.000000 0.000000 1.000000
      length 2.952750
      axis 0.0 0.0 0.0 xyz
      dof rx ry rz
   end
   begin
      id 12
      name Spine
      direction 0.000000 1.000000 0.000000
      length 0.000000
      axis 0.0 0.0 0.0 xyz
      dof rx ry rz
   end
   begin
      id 13
      name Spine_dum1
      direction 0.000000 1.000000 0.000000
      length 10.013923
      axis 0.0 0.0 0.0 xyz
   end
   begin
      id 14
      name Spine_dum2
      direction 0.000000 1.000000 0.000000
      length 10.013923
      axis 0.0 0.0 0.0 xyz
   end
   begin
      id 15
      name Spine_dum3
      direction 0.000000 1.000000 0.000000
      length 15.777476
      axis 0.0 0.0 0.0 xyz
   end
   begin
      id 16
      name RightShoulder
      direction -1.000000 0.000000 0.000000
      length 7.190220
      axis 0.0 0.0 90.0 xyz
      dof rx ry rz
   end
   begin
      id 17
      name RightArm
      direction -1.000000 0.000000 0.000000
      length 10.177469
      axis 0.0 0.0 90.0 xyz
      dof rx ry rz
   end
   begin
      id 18
      name RightForeArm
      direction -1.000000 0.000000 0.000000
      length 8.392114
      axis 0.0 0.0 90.0 xyz
      dof ry rz rx
   end
   begin
      id 19
      name RightHand
      direction -1.000000 0.000000 0.000000
      length 0.000000
      axis 0.0 0.0 90.0 xyz
      dof rx ry rz
   end
   begin
      id 20
      name RightHand_dum1
      direction -1.000000 0.000000 0.000000
      length 3.937000
      axis 0.0 0.0 90.0 xyz
   end
   begin
      id 21
      name RightHand_dum2
      direction 0.000000 0.000000 0.000000
      length 0.000000
      axis 0.0 0.0 90.0 xyz
   end
   begin
      id 22
      name RightHandThumb1
      direction 0.000000 0.000000 1.000000
      length 3.937000
      axis 0.0 0.0 90.0 xyz
      dof rx rz ry
   end
   begin
      id 23
      name LeftShoulder
      direction 1.000000 0.000000 0.000000
      length 7.190220
      axis 0.0 0.0 -90.0 xyz
      dof rx ry rz
   end
   begin
      id 24
      name LeftArm
      direction 1.000000 0.000000 0.000000
      length 10.177469
      axis 0.0 0.0 -90.0 xyz
      dof rx ry rz
   end
   begin
      id 25
      name LeftForeArm
      direction 1.000000 0.000000 0.000000
      length 8.392114
      axis 0.0 0.0 -90.0 xyz
      dof ry rz rx
   end
   begin
      id 26
      name LeftHand
      direction 1.000000 0.000000 0.000000
      length 0.000000
      axis 0.0 0.0 -90.0 xyz
      dof rx ry rz
   end
   begin
      id 27
      name LeftHand_dum1
      direction 1.000000 0.000000 0.000000
      length 3.937000
      axis 0.0 0.0 -90.0 xyz
   end
   begin
      id 28
      name LeftHand_dum2
      direction 0.000000 0.000000 0.000000
      length 0.000000
      axis 0.0 0.0 -90.0 xyz
   end
   begin
      id 29
      name LeftHandThumb1
      direction 0.000000 0.000000 1.000000
      length 3.937000
      axis 0.0 0.0 -90.0 xyz
      dof rx rz ry
   end
   begin
      id 30
      name Head
      direction 0.000000 1.000000 0.000000
      length 4.527550
      axis 0.0 0.0 0.0 xyz
      dof rx ry rz
   end
:hierarchy
   begin
      root RightUpLeg_dum LeftUpLeg_dum Spine_dum
      RightUpLeg_dum RightUpLeg
      LeftUpLeg_dum LeftUpLeg
      Spine_dum Spine
      RightUpLeg RightLeg
      RightLeg RightFoot
      RightFoot RightToeBase
      LeftUpLeg LeftLeg
      LeftLeg LeftFoot
      LeftFoot LeftToeBase
      Spine Spine_dum1 Spine_dum2 Spine_dum3
      Spine_dum1 RightShoulder
      Spine_dum2 LeftShoulder
      Spine_dum3 Head
      RightShoulder RightArm
      RightArm RightForeArm
      RightForeArm RightHand
      RightHand RightHand_dum1 RightHand_dum2
      RightHand_dum2 RightHandThumb1
      LeftShoulder LeftArm
      LeftArm LeftForeArm
      LeftForeArm LeftHand
      LeftHand LeftHand_dum1 LeftHand_dum2
      LeftHand_dum2 LeftHandThumb1
   end

# File created by Blade
# Date/Time:  Thu Jan 22 19:01:15 2015
# Frame Rate: 120.000 fps
#------------------------------------------------------
:FULLY-SPECIFIED
:DEGREES
789
root -2.811812 32.755676 -9.731304 66.213470 -2.379908 2.477089
RightUpLeg -76.632911 -2.930521 4.442024
RightLeg -1.087794 -0.000000 0.000000
RightFoot 5.446133 -1.948160 1.376655
RightToeBase 6.276703 -0.000000 -0.000000
LeftUpLeg -75.338674 3.231441 -4.433902
LeftLeg -2.126952 -0.000000 0.000000
LeftFoot 6.345964 2.066386 -9.977398
LeftToeBase 10.910153 -0.000000 -0.000000
Spine 46.022738 -4.763081 -5.928485
RightShoulder -47.510618 -60.010960 -0.758960
RightArm -3.576887 -16.693859 74.690691
RightForeArm -31.893218 -0.000000 2.728179
RightHand 3.985752 -0.000000 52.016899
RightHandThumb1 -24.326973 -0.000000 -32.862282
LeftShoulder -40.647893 49.744364 6.441367
LeftArm -26.908757 11.885363 -87.433097
LeftForeArm 38.998558 -0.000000 0.200023
LeftHand 2.949483 -0.000000 -48.330738
LeftHandThumb1 -26.253704 0.000000 33.147579
Head 25.178018 4.511877 -9.934902
790
root -2.811955 32.757867 -9.720154 66.181390 -2.373104 2.491535
RightUpLeg -76.601695 -2.947322 4.427737
RightLeg -1.047117 -0.000000 0.000000
RightFoot 5.414174 -1.962495 1.346788
RightToeBase 6.215086 -0.000000 -0.000000
LeftUpLeg -75.326545 3.203689 -4.395190
LeftLeg -2.040310 -0.000000 0.000000
LeftFoot 6.279518 2.123191 -9.950199
LeftToeBase 10.960081 -0.000000 -0.000000
Spine 45.857643 -4.731917 -5.836956
RightShoulder -47.664670 -59.938548 -0.588456
RightArm -3.556975 -16.749617 74.704800
RightForeArm -31.901818 0.000000 2.717321
RightHand 3.997304 -0.000000 51.944520
RightHandThumb1 -24.326973 -0.000000 -32.862282
LeftShoulder -40.597480 49.752876 6.476079
LeftArm -26.818634 11.855441 -87.406570
LeftForeArm 39.052257 -0.000000 0.256370
LeftHand 2.969465 -0.000000 -48.395892
LeftHandThumb1 -26.253704 0.000000 33.147579
Head 25.205630 4.472065 -9.962844
791
root -2.815091 32.760925 -9.707754 66.126895 -2.351875 2.497138
RightUpLeg -76.540827 -2.961460 4.441776
RightLeg -1.013577 -0.000000 0.000000
RightFoot 5.376761 -1.966495 1.350950
RightToeBase 6.254341 -0.000000 -0.000000
LeftUpLeg -75.286172 3.185403 -4.330040
LeftLeg -1.963925 -0.000000 0.000000
LeftFoot 6.217418 2.163546 -9.918301
LeftToeBase 11.008110 -0.000000 -0.000000
Spine 45.728735 -4.799622 -5.799171
RightShoulder -47.655558 -59.850174 -0.615358
RightArm -3.516411 -16.807957 74.721816
RightForeArm -31.985249 -0.000000 2.727045
RightHand 3.983713 -0.000000 52.007871
RightHandThumb1 -24.326973 -0.000000 -32.862282
LeftShoulder -40.607616 49.632766 6.440395
LeftArm -26.903782 11.880236 -87.418723
LeftForeArm 38.879852 0.000000 0.260617
LeftHand 2.985276 -0.000000 -48.203903
LeftHandThumb1 -26.253704 0.000000 33.147579
Head 25.164763 4.564443 -10.101262
792
root -2.819769 32.763601 -9.694951 66.047504 -2.340318 2.502251
RightUpLeg -76.459799 -2.966419 4.435838
RightLeg -0.963964 -0.000000 0.000000
RightFoot 5.317043 -1.999221 1.328572
RightToeBase 6.280771 -0.000000 -0.000000
LeftUpLeg -75.216824 3.181450 -4.294272
LeftLeg -1.896398 -0.000000 0.000000
LeftFoot 6.171365 2.183175 -9.905392
LeftToeBase 10.961973 -0.000000 -0.000000
Spine 45.602845 -4.718494 -5.721275
RightShoulder -47.849846 -59.821047 -0.337299
RightArm -3.465857 -16.829267 74.751385
RightForeArm -31.963987 -0.000000 2.732482
RightHand 3.960975 -0.000000 52.018995
RightHandThumb1 -24.326973 -0.000000 -32.862282
LeftShoulder -40.461479 49.628214 6.624723
LeftArm -26.850896 11.823408 -87.439398
LeftForeArm 38.843112 -0.000000 0.278180
LeftHand 3.001307 -0.000000 -48.246754
LeftHandThumb1 -26.253704 0.000000 33.147579
Head 25.202045 4.482187 -10.013034
793
root -2.823746 32.765307 -9.684176 65.953969 -2.330895 2.498131
RightUpLeg -76.372009 -2.970967 4.458609
RightLeg -0.906462 -0.000000 0.000000
RightFoot 5.261002 -1.992609 1.343494
RightToeBase 6.288308 -0.000000 -0.000000
LeftUpLeg -75.146598 3.169265 -4.185580
LeftLeg -1.798615 -0.000000 0.000000
LeftFoot 6.093631 2.272816 -9.950440
LeftToeBase 10.943734 -0.000000 -0.000000
Spine 45.521936 -4.802575 -5.736955
RightShoulder -47.730046 -59.711684 -0.458090
RightArm -3.437259 -16.964914 74.758087
RightForeArm -31.968748 -0.000000 2.739033
RightHand 3.958912 -0.000000 52.050836
RightHandThumb1 -24.326973 -0.000000 -32.862282
LeftShoulder -40.632495 49.585057 6.470192
LeftArm -26.808805 11.804370 -87.399487
LeftForeArm 38.757167 -0.000000 0.291856
LeftHand 3.032683 -0.000000 -48.338704
LeftHandThumb1 -26.253704 0.000000 33.147579
Head 25.066802 4.596572 -10.146419
794
root -2.828077 32.767316 -9.672094 65.824394 -2.313101 2.490828
RightUpLeg -76.237413 -2.971662 4.456824
RightLeg -0.860840 -0.000000 0.000000
RightFoot 5.207798 -2.015723 1.334175
RightToeBase 6.296106 -0.000000 -0.000000
LeftUpLeg -75.045394 3.186891 -4.185901
LeftLeg -1.706092 -0.000000 0.000000
LeftFoot 6.016618 2.261891 -9.905774
LeftToeBase 11.007991 -0.000000 -0.000000
Spine 45.473082 -4.848332 -5.726142
RightShoulder -47.538032 -59.579312 -0.633636
RightArm -3.525723 -17.106432 74.834233
RightForeArm -31.926307 -0.000000 2.767010
RightHand 3.991155 -0.000000 52.019212
RightHandThumb1 -24.326973 -0.000000 -32.862282
LeftShoulder -40.612955 49.474122 6.505010
LeftArm -26.916250 11.836975 -87.458431
LeftForeArm 38.641109 0.000000 0.349884
LeftHand 3.019174 -0.000000 -48.207690
LeftHandThumb1 -26.253704 0.000000 33.147579
Head 24.968940 4.705400 -10.198569
795
root -2.832026 32.769734 -9.661090 65.731085 -2.301148 2.490359
RightUpLeg -76.138941 -2.983716 4.490071
RightLeg -0.825917 -0.000000 0.000000
RightFoot 5.162723 -1.996219 1.361555
RightToeBase 6.311070 -0.000000 -0.000000
LeftUpLeg -74.987037 3.205711 -4.221637
LeftLeg -1.602550 -0.000000 0.000000
LeftFoot 5.954233 2.215760 -9.895503
LeftToeBase 11.034008 -0.000000 -0.000000
Spine 45.388208 -4.867645 -5.687754
RightShoulder -47.650537 -59.516252 -0.519437
RightArm -3.426878 -17.088331 74.829209
RightForeArm -31.954852 -0.000000 2.729815
RightHand 3.959314 -0.000000 52.020914
RightHandThumb1 -24.326973 -0.000000 -32.862282
LeftShoulder -40.579105 49.329648 6.559741
LeftArm -26.980632 11.882304 -87.465179
LeftForeArm 38.588107 -0.000000 0.374013
LeftHand 3.059725 -0.000000 -48.219169
LeftHandThumb1 -26.253704 0.000000 33.147579
Head 24.833404 4.735215 -10.242702
